<svg xmlns="http://www.w3.org/2000/svg" viewBox="0 0 48 48" fill="none" stroke="currentColor" stroke-width="2" stroke-linecap="round" stroke-linejoin="round" aria-hidden="true">
  <path d="M8 6 L8 32 C8 34 9 36 11 36 L37 36 C39 36 40 34 40 32 L40 18 C40 12 34 6 28 6 Z"/>
  <line x1="8" y1="20" x2="40" y2="20"/>
  <rect x="12" y="10" width="8" height="7"/>
  <rect x="24" y="10" width="8" height="7"/>
  <circle cx="15" cy="30" r="2"/>
  <circle cx="25" cy="30" r="2"/>
  <circle cx="35" cy="30" r="2"/>
  <line x1="4" y1="42" x2="44" y2="42"/>
  <line x1="4" y1="36" x2="8" y2="36"/>
  <polygon points="6,12 12,12 8,18"/>
</svg>
