<svg viewBox="0 0 200 200" xmlns="http://www.w3.org/2000/svg" role="img" aria-label="Avatar de Ludo">
  <title>Ludo - Co-fondateur, spécialiste transport parisien</title>
  <circle cx="100" cy="100" r="100" fill="#0F6E56"/>
  <path d="M 50 200 Q 50 150, 100 145 Q 150 150, 150 200 Z" fill="#1A2B26"/>
  <circle cx="100" cy="95" r="42" fill="#E8C9A5"/>
  <path d="M 60 90 Q 60 55, 100 50 Q 140 55, 140 90 L 140 78 Q 130 65, 100 65 Q 70 65, 60 78 Z" fill="#3E2C1A"/>
  <circle cx="86" cy="95" r="3" fill="#1A2B26"/>
  <circle cx="114" cy="95" r="3" fill="#1A2B26"/>
  <path d="M 80 87 L 92 86" stroke="#3E2C1A" stroke-width="2" stroke-linecap="round" fill="none"/>
  <path d="M 108 86 L 120 87" stroke="#3E2C1A" stroke-width="2" stroke-linecap="round" fill="none"/>
  <path d="M 100 100 L 100 110" stroke="#C9A480" stroke-width="2" stroke-linecap="round" fill="none"/>
  <path d="M 92 121 Q 100 126, 108 121" stroke="#8B5A3C" stroke-width="2" stroke-linecap="round" fill="none"/>
  <rect x="92" y="130" width="16" height="20" fill="#D4B596"/>
  <path d="M 75 155 L 100 145 L 125 155 L 125 165 L 75 165 Z" fill="white"/>
</svg>
