<svg viewBox="0 0 200 200" xmlns="http://www.w3.org/2000/svg" role="img" aria-label="Avatar de Élodie">
  <title>Élodie - Co-fondatrice, spécialiste tourisme et patrimoine</title>
  <circle cx="100" cy="100" r="100" fill="#A1006B"/>
  <path d="M 50 200 Q 50 150, 100 145 Q 150 150, 150 200 Z" fill="#F5E6D3"/>
  <circle cx="100" cy="95" r="42" fill="#E8C9A5"/>
  <path d="M 55 100 Q 55 60, 100 50 Q 145 60, 145 100 L 148 130 Q 145 140, 140 138 L 140 100 Q 135 70, 100 65 Q 65 70, 60 100 L 60 138 Q 55 140, 52 130 Z" fill="#5A3B1F"/>
  <path d="M 70 75 Q 100 60, 130 75 Q 130 82, 100 82 Q 70 82, 70 75 Z" fill="#5A3B1F"/>
  <circle cx="86" cy="98" r="3" fill="#1A2B26"/>
  <circle cx="114" cy="98" r="3" fill="#1A2B26"/>
  <path d="M 82 95 L 80 92" stroke="#1A2B26" stroke-width="1" stroke-linecap="round"/>
  <path d="M 90 95 L 92 92" stroke="#1A2B26" stroke-width="1" stroke-linecap="round"/>
  <path d="M 110 95 L 108 92" stroke="#1A2B26" stroke-width="1" stroke-linecap="round"/>
  <path d="M 118 95 L 120 92" stroke="#1A2B26" stroke-width="1" stroke-linecap="round"/>
  <path d="M 80 90 L 92 89" stroke="#5A3B1F" stroke-width="2" stroke-linecap="round" fill="none"/>
  <path d="M 108 89 L 120 90" stroke="#5A3B1F" stroke-width="2" stroke-linecap="round" fill="none"/>
  <path d="M 100 102 L 100 112" stroke="#C9A480" stroke-width="2" stroke-linecap="round" fill="none"/>
  <path d="M 90 122 Q 100 128, 110 122" stroke="#A65C5C" stroke-width="2" stroke-linecap="round" fill="none"/>
  <rect x="92" y="130" width="16" height="20" fill="#D4B596"/>
</svg>
